<svg id="svgexport-7_83_" data-name="svgexport-7 (83)" xmlns="http://www.w3.org/2000/svg" width="42.372" height="42.372" viewBox="0 0 42.372 42.372">
  <g id="Group_49" data-name="Group 49" transform="translate(0)">
    <path id="Path_44" data-name="Path 44" d="M208.161,161h-4.1a18.63,18.63,0,0,1-18.408,21.434q-.423,0-.844-.019a3.727,3.727,0,0,0,3.306,2.014h15.48l6.245,5.322a1.241,1.241,0,0,0,2.047-.945V164.724A3.728,3.728,0,0,0,208.161,161Z" transform="translate(-169.513 -147.676)" fill="#01609a"/>
    <path id="Path_45" data-name="Path 45" d="M32.276,16.138A16.138,16.138,0,1,0,4.218,27.017l-1.35,4.4a1.241,1.241,0,0,0,1.6,1.533l5.408-1.931a16.145,16.145,0,0,0,22.4-14.879Zm-17.338,7.9V18.463h-.59a5.2,5.2,0,0,1-5.192-5.193V11.343a.207.207,0,0,0-.2-.2h-.1a1.241,1.241,0,1,1,0-2.483h.1a2.69,2.69,0,0,1,2.687,2.687v1.927a2.713,2.713,0,0,0,2.71,2.71h.59V9.994a1.241,1.241,0,1,1,2.483,0V15.98h.59a2.713,2.713,0,0,0,2.71-2.71V11.343a2.69,2.69,0,0,1,2.687-2.687h.1a1.241,1.241,0,1,1,0,2.483h-.1a.207.207,0,0,0-.2.2v1.927a5.2,5.2,0,0,1-5.193,5.193h-.59v5.578a1.241,1.241,0,0,1-2.483,0Z" transform="translate(0)" fill="#01609a"/>
  </g>
</svg>
