<svg xmlns="http://www.w3.org/2000/svg" width="53.113" height="46.499" viewBox="0 0 53.113 46.499">
  <g id="svgexport-7_81_" data-name="svgexport-7 (81)" transform="translate(-38.246 -63.511)">
    <g id="_30-Checked" data-name="30-Checked" transform="translate(48.758 63.511)">
      <path id="Path_41" data-name="Path 41" d="M98.689,94.913l-.464-.791c-3.483-5.935-12.75-18.543-12.843-18.67l-.272-.369L88.6,71.639,98.571,78.6a114.76,114.76,0,0,1,15.887-16.9,57.762,57.762,0,0,1,6.985-5.278l.126-.076h6.142l-1.04.927c-13.135,11.7-27.386,36.589-27.528,36.839Z" transform="translate(-85.11 -56.35)" fill="#01609a"/>
    </g>
    <g id="_13-Cancel" data-name="13-Cancel" transform="translate(38.246 63.511)">
      <circle id="Ellipse_5" data-name="Ellipse 5" cx="1.027" cy="1.027" r="1.027" transform="translate(22.198 0)" fill="#828282"/>
      <circle id="Ellipse_6" data-name="Ellipse 6" cx="1.027" cy="1.027" r="1.027" transform="translate(22.198 44.444)" fill="#828282"/>
      <circle id="Ellipse_7" data-name="Ellipse 7" cx="1.027" cy="1.027" r="1.027" transform="translate(0 22.222)" fill="#828282"/>
      <circle id="Ellipse_8" data-name="Ellipse 8" cx="1.027" cy="1.027" r="1.027" transform="translate(44.396 22.222)" fill="#828282"/>
      <circle id="Ellipse_9" data-name="Ellipse 9" cx="1.027" cy="1.027" r="1.027" transform="translate(6.485 37.935)" fill="#828282"/>
      <circle id="Ellipse_10" data-name="Ellipse 10" cx="1.027" cy="1.027" r="1.027" transform="translate(6.502 6.526)" fill="#828282"/>
      <circle id="Ellipse_11" data-name="Ellipse 11" cx="1.027" cy="1.027" r="1.027" transform="translate(37.894 37.918)" fill="#828282"/>
      <circle id="Ellipse_12" data-name="Ellipse 12" cx="1.027" cy="1.027" r="1.027" transform="translate(2.953 11.111)" fill="#828282"/>
      <circle id="Ellipse_13" data-name="Ellipse 13" cx="1.027" cy="1.027" r="1.027" transform="translate(41.443 33.333)" fill="#828282"/>
      <circle id="Ellipse_14" data-name="Ellipse 14" cx="1.027" cy="1.027" r="1.027" transform="translate(11.099 41.446)" fill="#828282"/>
      <circle id="Ellipse_15" data-name="Ellipse 15" cx="1.027" cy="1.027" r="1.027" transform="translate(16.446 0.757)" fill="#828282"/>
      <circle id="Ellipse_16" data-name="Ellipse 16" cx="1.027" cy="1.027" r="1.027" transform="translate(27.949 43.687)" fill="#828282"/>
      <circle id="Ellipse_17" data-name="Ellipse 17" cx="1.027" cy="1.027" r="1.027" transform="translate(0.756 27.967)" fill="#828282"/>
      <circle id="Ellipse_18" data-name="Ellipse 18" cx="1.027" cy="1.027" r="1.027" transform="translate(43.639 16.477)" fill="#828282"/>
      <circle id="Ellipse_19" data-name="Ellipse 19" cx="1.027" cy="1.027" r="1.027" transform="translate(2.953 33.333)" fill="#828282"/>
      <circle id="Ellipse_20" data-name="Ellipse 20" cx="1.027" cy="1.027" r="1.027" transform="translate(33.297 41.446)" fill="#828282"/>
      <circle id="Ellipse_21" data-name="Ellipse 21" cx="1.027" cy="1.027" r="1.027" transform="translate(11.099 2.998)" fill="#828282"/>
      <circle id="Ellipse_22" data-name="Ellipse 22" cx="1.027" cy="1.027" r="1.027" transform="translate(27.949 0.757)" fill="#828282"/>
      <circle id="Ellipse_23" data-name="Ellipse 23" cx="1.027" cy="1.027" r="1.027" transform="translate(16.446 43.687)" fill="#828282"/>
      <circle id="Ellipse_24" data-name="Ellipse 24" cx="1.027" cy="1.027" r="1.027" transform="translate(43.639 27.967)" fill="#828282"/>
      <circle id="Ellipse_25" data-name="Ellipse 25" cx="1.027" cy="1.027" r="1.027" transform="translate(0.756 16.477)" fill="#828282"/>
    </g>
  </g>
</svg>
