<svg xmlns="http://www.w3.org/2000/svg" width="42" height="47.893" viewBox="0 0 42 47.893">
  <g id="svgexport-7_89_" data-name="svgexport-7 (89)" transform="translate(-31 0.107)">
    <g id="Group_68202" data-name="Group 68202" transform="translate(31)">
      <path id="Path_1311" data-name="Path 1311" d="M309.4,120a8.409,8.409,0,0,0-8.4,8.4V134h16.8v-5.6A8.409,8.409,0,0,0,309.4,120Z" transform="translate(-275.8 -108.8)" fill="#fff"/>
      <circle id="Ellipse_26" data-name="Ellipse 26" cx="5.5" cy="5.5" r="5.5" transform="translate(28 -0.107)" fill="#fff"/>
      <path id="Path_1312" data-name="Path 1312" d="M39.4,362a8.409,8.409,0,0,0-8.4,8.4V376H47.8v-5.6A8.409,8.409,0,0,0,39.4,362Z" transform="translate(-31 -328.213)" fill="#fff"/>
      <circle id="Ellipse_27" data-name="Ellipse 27" cx="5.5" cy="5.5" r="5.5" transform="translate(3 22.893)" fill="#fff"/>
      <path id="Path_1313" data-name="Path 1313" d="M249.369,332.789a4.2,4.2,0,0,1-4.2,4.2h-5.02l1.4-1.4-1.98-1.98-4.78,4.78,4.78,4.78,1.98-1.98-1.4-1.4h5.02a7.008,7.008,0,0,0,7-7v-7h-2.8Z" transform="translate(-215.769 -295.382)" fill="#fff"/>
      <path id="Path_1314" data-name="Path 1314" d="M108.38,29.475l-1.98-1.886-2.8-2.8-1.98,1.98,1.4,1.4H98a7.008,7.008,0,0,0-7,7v7h2.8v-7a4.2,4.2,0,0,1,4.2-4.2h5.02l-1.4,1.4,1.98,1.98,2.8-2.8Z" transform="translate(-85.4 -22.475)" fill="#fff"/>
    </g>
  </g>
</svg>
