<svg xmlns="http://www.w3.org/2000/svg" width="37.422" height="48" viewBox="0 0 37.422 48">
  <g id="svgexport-7_82_" data-name="svgexport-7 (82)" transform="translate(-5.291)">
    <g id="Group_48" data-name="Group 48">
      <path id="Path_42" data-name="Path 42" d="M24,0A10.426,10.426,0,1,0,34.422,10.424,10.434,10.434,0,0,0,24,0Z" fill="#01609a"/>
      <path id="Path_43" data-name="Path 43" d="M32.053,23.793a22.94,22.94,0,0,1,.762,6.215c1.533,1.359,5.555,5.365,4.68,9.318a4.629,4.629,0,0,1-3.24,3.285,1,1,0,0,1-.646-1.893,2.7,2.7,0,0,0,1.926-1.775c.6-2.711-2.4-6-4.07-7.465-2,.969-5.77,3.346-5.916,6.068a2.682,2.682,0,0,0,1.375,2.271A1,1,0,1,1,25.8,41.472a4.622,4.622,0,0,1-2.245-4.084c.227-4.225,5.749-7.1,7.29-7.828a27.252,27.252,0,0,0-.99-6.348,1.115,1.115,0,0,1-.01-.163,17.329,17.329,0,0,0-4.561-.626H22.716a17.362,17.362,0,0,0-5.089.763.914.914,0,0,1-.056.214,43.5,43.5,0,0,0-3.222,11.412,4.1,4.1,0,1,1-2.015-.045,48.769,48.769,0,0,1,2.713-10.541A17.434,17.434,0,0,0,5.291,39.853V47a1,1,0,0,0,1,1H41.713a1.011,1.011,0,0,0,1-1.014V39.853a17.46,17.46,0,0,0-10.66-16.06Z" fill="#01609a"/>
    </g>
  </g>
</svg>
