<svg xmlns="http://www.w3.org/2000/svg" width="25.251" height="18.513" viewBox="0 0 25.251 18.513">
  <g id="svgexport-7_76_" data-name="svgexport-7 (76)" transform="translate(-0.996 -5)">
    <g id="_x38_6-seen" transform="translate(0.997 5)">
      <path id="Path_20" data-name="Path 20" d="M20.009,13.129a7.156,7.156,0,1,1-6.387-3.921,1.11,1.11,0,0,1,.353.05.832.832,0,0,1,.555.631,3.69,3.69,0,0,0,3.593,2.928,3.378,3.378,0,0,0,.9-.118A.852.852,0,0,1,20.009,13.129ZM13.622,5C7.866,5,1.967,10.049,1.008,15.8a.84.84,0,0,0,1.658.278c.749-4.435,5.588-9.391,10.957-9.391S23.83,11.64,24.57,16.074a.847.847,0,0,0,.833.707.865.865,0,0,0,.143-.008.845.845,0,0,0,.69-.968C25.277,10.049,19.378,5,13.622,5Z" transform="translate(-0.997 -5)" fill="#01609a"/>
    </g>
  </g>
</svg>
