<svg xmlns="http://www.w3.org/2000/svg" width="44.87" height="41.132" viewBox="0 0 44.87 41.132">
  <g id="svgexport-7_85_" data-name="svgexport-7 (85)" transform="translate(0 -0.492)">
    <path id="Path_54" data-name="Path 54" d="M11.684,168.134a7,7,0,0,1-6.622-4.77L5,163.149a6.824,6.824,0,0,1-.324-2.027V148.375L.137,163.515a4.246,4.246,0,0,0,2.976,5.151l28.91,7.742a4.289,4.289,0,0,0,1.077.138,4.169,4.169,0,0,0,4.04-3.057l1.684-5.356Zm0,0" transform="translate(0 -134.922)" fill="#01609a"/>
    <path id="Path_55" data-name="Path 55" d="M153.059,71.971a3.739,3.739,0,1,0-3.739-3.739A3.743,3.743,0,0,0,153.059,71.971Zm0,0" transform="translate(-136.234 -58.391)" fill="#01609a"/>
    <path id="Path_56" data-name="Path 56" d="M118.039.492H89.994A4.681,4.681,0,0,0,85.32,5.167V25.732a4.681,4.681,0,0,0,4.674,4.674h28.045a4.681,4.681,0,0,0,4.674-4.674V5.167A4.681,4.681,0,0,0,118.039.492ZM89.994,4.232h28.045a.935.935,0,0,1,.935.935V18.439l-5.906-6.892a3.349,3.349,0,0,0-2.507-1.15,3.268,3.268,0,0,0-2.5,1.18l-6.944,8.335-2.262-2.257a3.282,3.282,0,0,0-4.637,0l-5.16,5.158V5.167A.935.935,0,0,1,89.994,4.232Zm0,0" transform="translate(-77.843)" fill="#01609a"/>
  </g>
</svg>
