<svg xmlns="http://www.w3.org/2000/svg" width="25.349" height="29.743" viewBox="0 0 25.349 29.743">
  <g id="Group_68199" data-name="Group 68199" transform="translate(-540 -5578.42)">
    <rect id="Rectangle_2509" data-name="Rectangle 2509" width="17.213" height="12.193" transform="translate(544.08 5593.292)" fill="#fff"/>
    <g id="svgexport-10_10_" data-name="svgexport-10 (10)" transform="translate(540 5578.42)">
      <g id="Layer_2" data-name="Layer 2" transform="translate(0 0)">
        <path id="Path_1309" data-name="Path 1309" d="M22.748,3.7h-2.16V2.352A1.264,1.264,0,0,0,19.436,1a1.264,1.264,0,0,0-1.152,1.352V3.7H14.827V2.352A1.264,1.264,0,0,0,13.674,1a1.264,1.264,0,0,0-1.152,1.352V3.7H9.066V2.352A1.264,1.264,0,0,0,7.913,1,1.264,1.264,0,0,0,6.761,2.352V3.7H4.6C2.613,3.707,1,5.6,1,7.929v3.887H26.349V7.929C26.346,5.6,24.736,3.707,22.748,3.7Z" transform="translate(-1 -1)" fill="#01609a"/>
        <path id="Path_1310" data-name="Path 1310" d="M1,23c0,2.332,1.613,4.222,3.6,4.225H22.748c1.988,0,3.6-1.893,3.6-4.225V11H1Zm8.4-5.432a1.036,1.036,0,0,1,1.629,0l1.49,1.747,3.794-4.451a1.036,1.036,0,0,1,1.629,0,1.523,1.523,0,0,1,0,1.912l-4.609,5.408a1.036,1.036,0,0,1-1.629,0l-2.3-2.7A1.523,1.523,0,0,1,9.4,17.567Z" transform="translate(-1 2.52)" fill="#01609a"/>
      </g>
    </g>
  </g>
</svg>
