<svg id="svgexport-7_91_" data-name="svgexport-7 (91)" xmlns="http://www.w3.org/2000/svg" width="47" height="47" viewBox="0 0 47 47">
  <g id="_014---Counciling" data-name="014---Counciling" transform="translate(0 0)">
    <ellipse id="Oval" cx="0.5" cy="1" rx="0.5" ry="1" transform="translate(29 8)" fill="#fff"/>
    <circle id="Oval-2" data-name="Oval" cx="1" cy="1" r="1" transform="translate(35 8)" fill="#fff"/>
    <path id="Shape" d="M21.107,32.786a4.181,4.181,0,0,1,3.357,1.7,4.181,4.181,0,0,1,3.357-1.7H40.411a4.153,4.153,0,0,1,2.518.861c0-12.2.1-11.666-.323-12.984a14.806,14.806,0,0,1-8.3.828c-7.455,3.992-6.893,3.741-7.191,3.741a.839.839,0,0,1-.818-1.028l1.371-5.938A10.6,10.6,0,0,1,25.807,16H12.714A6.722,6.722,0,0,0,6,22.714V33.647a4.153,4.153,0,0,1,2.518-.861Z" transform="translate(-0.964 -2.571)" fill="#fff"/>
    <circle id="Oval-3" data-name="Oval" cx="1" cy="1" r="1" transform="translate(42 8)" fill="#fff"/>
    <path id="Shape-2" data-name="Shape" d="M32.994,14.758a.839.839,0,0,1,.275.828L32.2,20.208,37.631,17.3c.556-.3.884.2,3.28.2,6.016,0,10.911-3.924,10.911-8.748S46.927,0,40.911,0c-9.491,0-14.5,9.169-7.917,14.758Zm1.2-3.008a2.518,2.518,0,1,1,2.518-2.518A2.518,2.518,0,0,1,34.2,11.75ZM47.625,6.714a2.518,2.518,0,1,1-2.518,2.518A2.518,2.518,0,0,1,47.625,6.714Zm-4.2,2.518a2.518,2.518,0,1,1-2.518-2.518A2.518,2.518,0,0,1,43.428,9.232Z" transform="translate(-4.821 0)" fill="#fff"/>
    <path id="Shape-3" data-name="Shape" d="M9.2,55.357a.839.839,0,0,0,.839-.839V52H5v2.518a.839.839,0,0,0,.839.839Z" transform="translate(-0.804 -8.357)" fill="#fff"/>
    <path id="Shape-4" data-name="Shape" d="M31.518,38A2.518,2.518,0,0,0,29,40.518v2.518H45.786a.839.839,0,0,0,.839-.839V40.518A2.518,2.518,0,0,0,44.107,38Z" transform="translate(-4.661 -6.107)" fill="#fff"/>
    <path id="Shape-5" data-name="Shape" d="M49.2,55.357a.839.839,0,0,0,.839-.839V52H45v2.518a.839.839,0,0,0,.839.839Z" transform="translate(-7.232 -8.357)" fill="#fff"/>
    <path id="Shape-6" data-name="Shape" d="M6.839,43.036H23.625V40.518A2.518,2.518,0,0,0,21.107,38H8.518A2.518,2.518,0,0,0,6,40.518V42.2A.839.839,0,0,0,6.839,43.036Z" transform="translate(-0.964 -6.107)" fill="#fff"/>
    <path id="Shape-7" data-name="Shape" d="M3.357,45.821H43.643A3.357,3.357,0,0,0,47,42.464V24.839A.839.839,0,0,0,46.161,24H44.482a.839.839,0,0,0-.839.839V39.946a2.518,2.518,0,0,1-2.518,2.518H5.875a2.518,2.518,0,0,1-2.518-2.518V24.839A.839.839,0,0,0,2.518,24H.839A.839.839,0,0,0,0,24.839V42.464A3.357,3.357,0,0,0,3.357,45.821Z" transform="translate(0 -3.857)" fill="#fff"/>
  </g>
</svg>
