<svg id="svgexport-7_90_" data-name="svgexport-7 (90)" xmlns="http://www.w3.org/2000/svg" width="43.345" height="43.345" viewBox="0 0 43.345 43.345">
  <g id="Group_68207" data-name="Group 68207" transform="translate(0)">
    <path id="Path_1315" data-name="Path 1315" d="M238.865,367.4h2.9v2.9h-2.9Z" transform="translate(-218.643 -336.296)" fill="#fff"/>
    <path id="Path_1316" data-name="Path 1316" d="M375.434,367.4h2.9v2.9h-2.9Z" transform="translate(-343.65 -336.296)" fill="#fff"/>
    <path id="Path_1317" data-name="Path 1317" d="M102.3,238.867h2.9v2.9h-2.9Z" transform="translate(-93.638 -218.645)" fill="#fff"/>
    <path id="Path_1318" data-name="Path 1318" d="M102.3,367.4h2.9v2.9h-2.9Z" transform="translate(-93.638 -336.296)" fill="#fff"/>
    <path id="Path_1319" data-name="Path 1319" d="M38.675,2.72h-.951v3.99a1.27,1.27,0,1,1-2.54,0V1.27a1.27,1.27,0,1,0-2.54,0V2.72H29.563v3.99a1.27,1.27,0,1,1-2.54,0V1.27a1.27,1.27,0,1,0-2.54,0V2.72H21.4v3.99a1.27,1.27,0,0,1-2.54,0V1.27a1.27,1.27,0,1,0-2.54,0V2.72H13.241v3.99a1.27,1.27,0,0,1-2.54,0V1.27a1.27,1.27,0,1,0-2.54,0V2.72H4.67A4.676,4.676,0,0,0,0,7.391v3.491H43.345V7.391a4.676,4.676,0,0,0-4.67-4.67Z" transform="translate(0)" fill="#fff"/>
    <path id="Path_1320" data-name="Path 1320" d="M0,183.787a4.676,4.676,0,0,0,4.67,4.67h34a4.676,4.676,0,0,0,4.67-4.67V158.533H0Zm25.663-3.4a1.27,1.27,0,0,1-1.27,1.27H18.952a1.27,1.27,0,0,1-1.27-1.27v-5.441a1.27,1.27,0,0,1,1.27-1.27h5.441a1.27,1.27,0,0,1,1.27,1.27Zm3.581-16.322a1.27,1.27,0,0,1,1.27-1.27h5.441a1.27,1.27,0,0,1,1.27,1.27V169.5a1.27,1.27,0,0,1-1.27,1.27H30.514a1.27,1.27,0,0,1-1.27-1.27Zm0,10.882a1.27,1.27,0,0,1,1.27-1.27h5.441a1.27,1.27,0,0,1,1.27,1.27v5.441a1.27,1.27,0,0,1-1.27,1.27H30.514a1.27,1.27,0,0,1-1.27-1.27Zm-11.355-9.059a1.27,1.27,0,0,1,1.8,0l1.026,1.026,2.949-2.949a1.27,1.27,0,0,1,1.8,1.8l-3.847,3.847a1.27,1.27,0,0,1-1.8,0l-1.924-1.924A1.27,1.27,0,0,1,17.889,165.887ZM6.121,164.064a1.27,1.27,0,0,1,1.27-1.27h5.441a1.27,1.27,0,0,1,1.27,1.27V169.5a1.27,1.27,0,0,1-1.27,1.27H7.391a1.27,1.27,0,0,1-1.27-1.27Zm0,10.882a1.27,1.27,0,0,1,1.27-1.27h5.441a1.27,1.27,0,0,1,1.27,1.27v5.441a1.27,1.27,0,0,1-1.27,1.27H7.391a1.27,1.27,0,0,1-1.27-1.27Z" transform="translate(0 -145.112)" fill="#fff"/>
    <path id="Path_1321" data-name="Path 1321" d="M375.434,238.867h2.9v2.9h-2.9Z" transform="translate(-343.65 -218.645)" fill="#fff"/>
  </g>
</svg>
